<?xml version="1.0" standalone="no"?>
<!DOCTYPE svg PUBLIC "-//W3C//DTD SVG 20010904//EN"
 "http://www.w3.org/TR/2001/REC-SVG-20010904/DTD/svg10.dtd">
<svg version="1.0" xmlns="http://www.w3.org/2000/svg"
 width="300.000000pt" height="300.000000pt" viewBox="0 0 300.000000 300.000000"
 preserveAspectRatio="xMidYMid meet">
<metadata>
Created by potrace 1.11, written by Peter Selinger 2001-2013
</metadata>
<g transform="translate(0.000000,300.000000) scale(0.100000,-0.100000)"
fill="#000000" stroke="none">
<path d="M155 2824 c-16 -3 -58 -14 -93 -25 -47 -16 -62 -25 -62 -40 0 -24 12
-24 91 2 57 18 82 20 224 17 113 -3 168 -9 186 -19 15 -8 46 -25 69 -37 l43
-24 26 21 c41 33 72 44 126 43 53 -1 111 -21 160 -56 16 -11 44 -28 61 -36 30
-15 119 -106 160 -165 24 -34 49 -115 59 -192 7 -51 6 -53 -21 -63 -61 -24
-66 -20 -85 53 -28 111 -64 179 -126 242 -40 42 -124 59 -141 29 -6 -10 -27
-18 -54 -21 -39 -4 -45 -2 -58 21 -7 14 -19 26 -27 26 -7 0 -13 4 -13 9 0 6
-21 13 -47 16 -27 3 -60 13 -75 21 -59 32 -80 22 -192 -91 -58 -57 -117 -107
-131 -111 -36 -9 -67 7 -84 42 -7 16 -20 44 -29 61 -14 30 -14 35 1 51 38 42
11 88 -45 77 -78 -15 -78 -14 -78 -154 l0 -126 37 -20 c42 -23 143 -116 143
-132 0 -6 -6 -16 -14 -22 -16 -14 -74 11 -133 57 l-33 24 0 -57 c0 -55 2 -60
48 -109 43 -47 45 -51 25 -54 -12 -2 -33 4 -47 14 l-26 16 0 -153 0 -154 32
-20 c65 -41 80 -47 132 -52 65 -7 90 12 101 78 4 24 16 67 28 94 11 28 23 69
28 92 4 23 22 72 40 110 33 72 75 162 94 203 7 14 18 46 25 73 7 26 17 50 21
53 5 3 9 14 9 25 0 30 38 99 55 99 8 0 17 -12 20 -27 4 -16 9 -39 12 -53 3
-14 9 -52 14 -85 5 -33 15 -82 23 -110 57 -189 70 -172 82 108 3 70 9 127 12
126 15 -1 50 -57 70 -109 25 -68 33 -121 37 -242 6 -158 39 -294 79 -327 14
-12 23 -12 52 -2 27 10 38 10 49 1 23 -19 19 -99 -5 -135 -31 -46 -49 -91 -56
-146 -4 -27 -11 -52 -16 -55 -5 -3 -61 5 -124 17 -101 21 -116 22 -125 9 -15
-22 -5 -117 14 -138 9 -10 17 -24 17 -31 0 -21 69 -109 90 -116 29 -9 24 -39
-9 -68 -43 -36 -140 -51 -271 -43 l-108 6 -11 -31 c-17 -48 -14 -69 9 -69 12
0 20 7 20 18 1 39 12 43 161 46 134 3 148 5 197 30 29 15 56 35 59 44 3 9 18
31 33 47 16 17 36 53 45 80 20 57 65 260 65 291 0 11 14 42 31 68 43 64 54
126 31 174 -16 36 -19 37 -74 40 -67 3 -71 8 -92 108 -12 59 -12 70 0 90 14
20 65 43 139 63 17 4 57 22 89 39 32 18 71 32 86 32 42 0 53 21 45 86 -17 136
-60 227 -152 320 -149 150 -342 220 -468 170 -39 -16 -43 -15 -105 10 -57 23
-82 26 -205 29 -77 2 -153 1 -170 -1z"/>
<path d="M2900 2780 c-19 -4 -69 -13 -110 -20 -41 -6 -105 -25 -141 -41 -36
-16 -70 -29 -76 -29 -17 0 -102 -40 -108 -50 -3 -6 -15 -10 -25 -10 -10 0 -44
-24 -75 -52 -31 -29 -67 -57 -79 -63 -13 -5 -30 -18 -40 -27 -9 -10 -22 -21
-29 -25 -24 -15 -94 -108 -119 -158 -36 -71 -51 -115 -52 -155 -1 -32 1 -35
32 -38 18 -2 47 4 65 13 118 62 157 78 232 100 117 34 115 35 116 -27 1 -29 1
-57 -1 -63 -1 -5 -4 -32 -6 -60 -6 -56 -30 -146 -50 -186 -13 -25 -15 -26 -87
-21 -72 4 -74 4 -96 -24 -20 -25 -22 -37 -17 -79 7 -57 26 -116 44 -138 7 -8
22 -59 34 -113 11 -55 27 -112 33 -129 7 -16 16 -45 20 -63 11 -53 54 -153 82
-189 34 -44 66 -60 157 -77 58 -12 90 -12 145 -4 39 6 77 8 85 5 8 -3 18 -33
25 -73 12 -64 11 -68 -11 -91 -13 -14 -35 -30 -49 -36 -15 -7 -55 -46 -90 -87
-66 -78 -76 -91 -109 -152 -11 -20 -24 -38 -29 -40 -5 -1 -11 -16 -13 -32 -3
-33 19 -53 47 -42 13 5 16 13 11 37 -9 47 24 111 100 190 37 38 73 69 79 69 6
0 53 -20 103 -45 50 -25 94 -45 97 -45 3 0 5 8 5 18 0 11 -26 30 -80 56 -44
21 -80 42 -80 45 0 4 14 18 30 33 26 23 30 33 30 77 0 27 -5 73 -11 101 -13
61 -32 69 -119 50 -66 -14 -173 -6 -231 16 -38 16 -99 91 -99 122 0 10 30 46
66 81 91 88 116 130 112 189 l-3 47 -35 -3 c-19 -1 -78 -3 -130 -5 l-95 -2 -3
30 c-2 17 -10 37 -18 45 -32 37 -64 113 -64 155 0 69 35 90 109 64 54 -19 74
-7 95 58 10 32 22 69 28 83 5 13 14 76 20 140 5 63 12 125 14 137 7 35 38 47
89 34 24 -6 111 -11 194 -11 171 0 170 1 151 -86 -11 -45 -14 -274 -5 -371 2
-22 10 -54 19 -70 14 -26 15 10 16 415 l0 442 -50 0 c-28 0 -88 -12 -133 -26
-144 -46 -231 -77 -252 -91 -11 -7 -29 -13 -40 -13 -11 0 -73 -27 -139 -61
-65 -33 -121 -57 -124 -54 -3 3 4 15 15 28 11 12 32 47 47 77 16 30 38 66 50
78 31 35 143 99 213 122 33 11 83 29 109 41 27 11 89 25 139 30 150 15 165 19
165 40 0 21 -33 24 -100 9z"/>
<path d="M2590 2202 c0 -17 37 -42 86 -59 27 -9 62 -27 77 -40 36 -29 47 -29
47 2 0 30 -48 63 -131 88 -63 19 -79 21 -79 9z"/>
<path d="M710 2123 c-8 -2 -28 -30 -44 -63 -30 -62 -52 -78 -85 -61 -42 23
-42 8 0 -36 45 -49 64 -44 97 25 17 36 39 64 59 77 18 11 32 26 30 34 -2 16
-35 29 -57 24z"/>
<path d="M2607 2012 c-6 -9 42 -66 49 -59 3 3 3 15 -1 26 -7 23 -41 46 -48 33z"/>
<path d="M748 1963 c-9 -11 -18 -49 -22 -95 -6 -72 -5 -77 14 -83 13 -4 31 0
45 9 31 21 40 67 26 148 -2 10 -31 38 -40 38 -4 0 -15 -8 -23 -17z"/>
<path d="M2549 1903 c0 -5 -2 -17 -4 -28 -16 -90 -17 -106 -5 -120 17 -21 47
-19 60 4 5 11 10 45 10 75 0 44 -4 57 -19 66 -23 12 -41 13 -42 3z"/>
<path d="M1990 1615 c0 -18 46 -42 58 -31 7 8 -33 46 -49 46 -5 0 -9 -7 -9
-15z"/>
<path d="M1388 1552 c-21 -2 -38 -7 -38 -13 0 -12 87 -12 94 0 8 12 -12 17
-56 13z"/>
<path d="M1390 1351 c0 -9 53 -31 74 -31 6 0 -2 9 -19 20 -32 21 -55 26 -55
11z"/>
<path d="M0 1272 c0 -61 3 -73 20 -82 11 -6 20 -17 20 -25 0 -16 27 -45 41
-45 22 0 19 34 -7 86 -32 63 -24 79 33 69 45 -8 83 4 83 25 0 15 -11 19 -67
23 -38 3 -80 9 -95 12 l-28 7 0 -70z"/>
<path d="M1987 1324 c-9 -9 2 -24 17 -24 7 0 21 7 32 15 18 14 17 14 -12 15
-17 0 -34 -3 -37 -6z"/>
<path d="M43 1093 l-43 -4 0 -280 c0 -241 2 -279 15 -279 18 0 115 -68 115
-81 0 -21 38 -7 70 25 41 43 70 123 70 192 0 42 4 53 18 56 34 7 127 -13 147
-32 11 -10 38 -27 60 -36 22 -9 42 -20 45 -24 3 -4 19 -11 35 -17 17 -5 35
-19 41 -31 6 -12 18 -30 27 -40 10 -10 17 -24 17 -30 0 -7 4 -12 9 -12 5 0 12
-17 16 -37 4 -21 11 -44 17 -50 16 -19 38 -16 38 6 0 21 -48 126 -84 186 -83
134 -92 166 -51 173 28 6 45 21 45 42 0 18 -103 120 -120 120 -5 0 -32 14 -60
30 -28 17 -59 30 -68 30 -10 0 -26 6 -37 14 -11 7 -51 21 -90 29 -38 9 -89 25
-112 37 -23 11 -50 19 -60 18 -10 -1 -37 -3 -60 -5z m278 -109 c27 -13 60 -24
74 -24 66 0 206 -98 191 -135 -3 -9 -22 -23 -41 -31 -40 -16 -42 -22 -17 -55
22 -28 34 -59 24 -59 -28 2 -165 88 -197 125 -15 17 -156 109 -189 123 -23 10
-26 15 -16 27 8 10 8 19 1 33 -6 11 -7 23 -3 27 13 13 125 -6 173 -31z"/>
<path d="M2061 988 c-31 -35 -39 -49 -26 -47 21 5 79 73 74 87 -2 5 -24 -13
-48 -40z"/>
<path d="M1302 960 c1 -13 9 -25 16 -28 17 -5 15 23 -4 39 -14 11 -15 10 -12
-11z"/>
<path d="M470 268 c0 -10 -7 -18 -16 -18 -13 0 -14 -3 -5 -14 11 -13 51 -11
51 3 0 4 -7 16 -15 27 -13 17 -14 17 -15 2z"/>
<path d="M500 210 c0 -5 5 -10 10 -10 6 0 10 5 10 10 0 6 -4 10 -10 10 -5 0
-10 -4 -10 -10z"/>
</g>
</svg>
